<?xml version="1.0" standalone="no"?>
<!DOCTYPE svg PUBLIC "-//W3C//DTD SVG 20010904//EN"
 "http://www.w3.org/TR/2001/REC-SVG-20010904/DTD/svg10.dtd">
<svg version="1.0" xmlns="http://www.w3.org/2000/svg"
 width="706.000000pt" height="500.000000pt" viewBox="0 0 706.000000 500.000000"
 preserveAspectRatio="xMidYMid meet">

<g transform="translate(0.000000,500.000000) scale(0.100000,-0.100000)"
fill="#000000" stroke="none">
<path d="M3350 4904 c-231 -21 -510 -64 -730 -114 -233 -53 -381 -97 -870
-260 -766 -256 -824 -270 -1145 -279 l-219 -6 -8 -45 c-11 -60 -28 -316 -28
-412 0 -61 3 -78 14 -78 37 0 311 56 494 100 323 79 659 178 1192 351 476 155
712 214 1060 263 231 33 407 40 620 27 538 -34 1028 -128 1600 -306 295 -92
487 -149 670 -197 147 -38 164 -40 340 -45 249 -8 426 8 548 49 52 17 102 38
113 47 18 16 18 17 -6 75 -27 66 -107 202 -146 249 l-25 30 -115 -24 c-96 -20
-141 -24 -284 -23 -251 1 -408 34 -865 181 -647 209 -1023 307 -1470 385 -160
28 -197 31 -435 33 -143 2 -280 1 -305 -1z"/>
<path d="M3424 4210 c-330 -28 -480 -60 -1409 -306 -650 -173 -1066 -279
-1425 -364 l-285 -67 -3 -216 -2 -217 22 -5 c13 -2 86 -16 163 -31 349 -64
628 -140 1020 -277 391 -136 579 -193 870 -266 556 -138 1041 -185 1505 -147
108 9 253 16 323 16 l127 0 0 -24 c0 -76 -319 -419 -640 -687 -200 -167 -535
-398 -789 -543 -773 -444 -1497 -602 -1993 -435 -278 93 -474 333 -495 606
-18 229 101 407 323 484 32 10 61 16 66 11 4 -4 3 -23 -2 -42 -27 -95 -1 -181
75 -248 115 -101 259 -90 371 30 123 131 132 320 24 457 -54 69 -168 141 -276
177 -79 26 -103 29 -209 29 -145 -1 -212 -16 -345 -81 -79 -40 -109 -61 -185
-138 -65 -65 -102 -111 -127 -161 -199 -387 -112 -902 207 -1221 220 -220 517
-324 927 -324 780 0 1720 401 2578 1098 307 250 765 686 977 932 131 151 201
195 278 176 63 -16 81 -157 49 -375 -8 -58 -42 -212 -75 -341 -137 -533 -161
-631 -188 -765 -16 -77 -35 -183 -42 -235 -16 -123 -18 -565 -3 -580 18 -18
77 12 132 67 133 134 270 420 442 918 39 116 95 255 123 309 86 168 197 261
361 302 36 9 66 19 66 23 0 3 -56 34 -125 69 -253 128 -308 225 -271 479 26
177 64 266 176 413 100 131 188 204 339 279 171 86 404 150 721 196 96 14 183
29 192 33 14 6 4 35 -76 212 -108 240 -82 223 -282 190 -179 -30 -378 -36
-529 -16 -165 22 -263 49 -605 166 -744 255 -1196 380 -1537 425 -145 19 -404
27 -539 15z m-314 -540 c-43 -291 72 -475 342 -547 79 -21 272 -23 348 -4 139
34 263 130 316 245 36 78 50 194 36 292 -6 43 -9 80 -7 82 5 5 442 -85 568
-117 258 -67 688 -221 901 -324 l109 -52 -40 -27 c-281 -186 -774 -365 -1222
-443 -178 -31 -355 -42 -771 -50 -781 -15 -1095 40 -2100 370 -157 51 -332
108 -389 125 l-105 33 265 62 c145 35 518 126 829 204 630 157 912 222 921
212 4 -3 3 -31 -1 -61z"/>
</g>
</svg>
